<?xml version="1.0" encoding="UTF-8"?>
<svg version="1.1" xmlns="http://www.w3.org/2000/svg" width="2031" height="2033">
<path d="M0 0 C6.00034568 0.00513238 12.0006814 -0.00146947 18.00102562 -0.00648667 C28.4890496 -0.01367019 38.97705574 -0.01358382 49.46507931 -0.00839235 C60.70289959 -0.00286384 71.94070777 -0.00174986 83.17852879 -0.00586702 C83.89186444 -0.00612536 84.60520009 -0.00638371 85.34015197 -0.00664988 C88.24609278 -0.00771658 91.15203358 -0.00881402 94.05797436 -0.00995043 C121.04118198 -0.02049506 148.02438151 -0.02126163 175.0075903 -0.01565553 C201.0032719 -0.01025729 226.99894967 -0.00814872 252.99463177 -0.01069642 C254.63069248 -0.01085138 256.26675319 -0.01100569 257.9028139 -0.01115936 C264.47829512 -0.01178036 271.05377633 -0.01241769 277.62925755 -0.01307889 C296.00764867 -0.01491244 314.3860398 -0.01605398 332.764431 -0.01665116 C333.60117085 -0.01667846 334.43791071 -0.01670575 335.30000631 -0.01673387 C361.94148205 -0.01755179 388.58295662 -0.01530189 415.22443199 -0.01095201 C416.08786802 -0.01081151 416.95130405 -0.01067101 417.84090481 -0.01052626 C431.86045969 -0.00823666 445.88001455 -0.00579759 459.89956941 -0.00334591 C515.49709222 0.00636639 571.09460541 0.00591475 626.69212818 -0.00380708 C640.70598856 -0.00624967 654.71984894 -0.00867186 668.73370934 -0.01095201 C669.59671878 -0.0110929 670.45972823 -0.0112338 671.34888948 -0.01137897 C697.96477977 -0.01569446 724.58066927 -0.0175193 751.19655991 -0.01665116 C752.03266333 -0.016624 752.86876675 -0.01659683 753.73020664 -0.01656884 C772.08793999 -0.01594375 790.44567326 -0.01467621 808.80340653 -0.01283016 C815.37251437 -0.01217194 821.9416222 -0.01154577 828.51073004 -0.01092874 C830.14479136 -0.01077396 831.77885268 -0.0106165 833.412914 -0.01045634 C859.39696644 -0.00791662 885.38101468 -0.01075868 911.36506657 -0.01615663 C938.27309199 -0.02168541 965.18110774 -0.01961888 992.08913178 -0.00909404 C994.98511119 -0.00798945 997.88109062 -0.00691603 1000.77707005 -0.00586702 C1001.84307723 -0.0054764 1001.84307723 -0.0054764 1002.9306199 -0.00507788 C1014.13313343 -0.00115019 1025.3356348 -0.00386125 1036.53814722 -0.00940503 C1047.58294629 -0.0147268 1058.62772871 -0.01261584 1069.67252627 -0.00337685 C1075.56791184 0.00135495 1081.46325193 0.00306159 1087.35863597 -0.00418882 C1186.82035495 -0.11722774 1279.86831468 20.06491742 1407.83006764 111.92099761 C1409.22853407 113.18617602 1410.63313544 114.44526411 1412.06859303 115.66831206 C1417.95333625 120.69880611 1423.42560857 126.11814505 1428.88499928 131.59946441 C1430.47169835 133.19152477 1432.06367631 134.77816501 1433.65623951 136.36435698 C1439.11817408 141.82240337 1444.42517642 147.3564798 1449.41209889 153.25693511 C1450.30056969 154.27851015 1451.18984571 155.29938567 1452.08006764 156.31943511 C1459.25517604 164.68483281 1465.92840322 173.34706953 1472.41209889 182.25693511 C1472.95205494 182.99234526 1473.492011 183.72775542 1474.04832936 184.48545073 C1517.09926404 243.36153192 1543.12077495 312.2948841 1554.02660084 384.14170073 C1554.39327677 386.43548397 1554.39327677 386.43548397 1555.41209889 389.25693511 C1555.51008058 392.05680774 1555.55012889 394.83172894 1555.54435206 397.63175129 C1555.54649976 398.50224683 1555.54864746 399.37274238 1555.55086025 400.26961658 C1555.55689486 403.21873746 1555.55575092 406.16781325 1555.5546999 409.11693953 C1555.55756083 411.24894645 1555.56085696 413.38095282 1555.56455148 415.51295846 C1555.57348657 421.41883582 1555.57612053 427.32470226 1555.57777461 433.23058555 C1555.58063516 439.63845157 1555.58919487 446.04631035 1555.597013 452.45417188 C1555.61008644 463.70138699 1555.61899124 474.94860106 1555.62551213 486.19582175 C1555.6325139 498.26942645 1555.64161193 510.34302673 1555.65326023 522.41662787 C1555.65399229 523.17827097 1555.65472434 523.93991406 1555.65547858 524.72463725 C1555.65846198 527.82659463 1555.66145256 530.928552 1555.66445435 534.03050937 C1555.70418228 575.17421522 1555.72982732 616.3179276 1555.75289545 657.46164567 C1555.75583158 662.69207337 1555.75882772 667.92250104 1555.76183343 673.1529287 C1555.80055168 740.62498868 1555.83413792 808.09705086 1555.85600209 875.56911854 C1555.86089474 890.61354593 1555.86595763 905.65797327 1555.87109442 920.70240058 C1555.87206007 923.53549177 1555.87301819 926.36858297 1555.87397627 929.20167416 C1555.89424585 988.83775492 1555.93870476 1048.4737839 1555.99791041 1108.10983788 C1556.04110366 1151.6283332 1556.08087029 1195.14681717 1556.09573078 1238.66533278 C1556.09603841 1239.56154029 1556.09634604 1240.4577478 1556.09666298 1241.38111311 C1556.10334733 1261.06189321 1556.10808151 1280.74267331 1556.11098742 1300.42345433 C1556.11218691 1308.34400946 1556.11364367 1316.26456454 1556.11517811 1324.18511962 C1556.11541954 1325.48535965 1556.11541954 1325.48535965 1556.11566584 1326.81186716 C1556.12095846 1354.67139576 1556.14794923 1382.53085044 1556.18633801 1410.3903515 C1556.22493548 1438.48672581 1556.24121537 1466.58302116 1556.22728558 1494.67942114 C1556.22535828 1498.57521538 1556.22367796 1502.47100969 1556.22214604 1506.36680411 C1556.2216818 1507.51218104 1556.2216818 1507.51218104 1556.22120819 1508.68069691 C1556.21697664 1520.69886811 1556.23610202 1532.71688006 1556.26532813 1544.73501164 C1556.29367853 1556.59640789 1556.29642995 1568.45759316 1556.27324575 1580.31900264 C1556.26189961 1586.64627119 1556.26104055 1592.97300685 1556.29195994 1599.30022206 C1556.42072959 1627.33680018 1555.08395052 1653.88978132 1548.85920845 1681.2868959 C1548.40976462 1683.26722029 1547.97096974 1685.24965132 1547.53473944 1687.23292472 C1540.9816766 1716.82495939 1530.94888419 1745.68352575 1518.41209889 1773.25693511 C1518.00282154 1774.16894683 1517.5935442 1775.08095855 1517.17186451 1776.02060698 C1504.63103966 1803.82852296 1488.64494791 1829.84215833 1470.41209889 1854.25693511 C1469.96092701 1854.86263335 1469.50975514 1855.46833159 1469.04491139 1856.09238433 C1459.96089797 1868.23537045 1450.11740041 1879.64619435 1439.80467701 1890.75107573 C1438.369158 1892.30336908 1436.94399988 1893.86460589 1435.52147389 1895.42881011 C1428.85272282 1902.75979499 1422.14333912 1909.85472847 1414.62303639 1916.32334136 C1412.13085999 1918.50289492 1409.71371221 1920.75466791 1407.28709889 1923.00693511 C1401.46859142 1928.31109937 1395.34715749 1933.14967784 1389.10594654 1937.94394683 C1387.58269451 1939.12469768 1386.0799737 1940.33182233 1384.58006764 1941.54209136 C1367.1818369 1955.41783488 1347.94618268 1967.63869175 1328.41209889 1978.25693511 C1327.54230397 1978.73292144 1326.67250904 1979.20890776 1325.7763567 1979.69931792 C1274.33986585 2007.68120531 1219.28436215 2023.82034548 1161.41209889 2031.25693511 C1160.74622979 2031.34300989 1160.0803607 2031.42908467 1159.39431375 2031.51776777 C1154.0697219 2032.16201781 1148.84942467 2032.39973177 1143.48922199 2032.38573628 C1142.63240999 2032.38751129 1141.77559798 2032.38928629 1140.89282198 2032.39111509 C1138.02653526 2032.39583978 1135.16029919 2032.3934858 1132.29401017 2032.39115619 C1130.20746576 2032.39311013 1128.12092172 2032.39549936 1126.03437826 2032.39828416 C1120.28274727 2032.40468203 1114.53113026 2032.40484594 1108.77949638 2032.40400675 C1102.52851315 2032.40417629 1096.27753491 2032.41008295 1090.02655417 2032.41524761 C1079.0642972 2032.42348967 1068.10204451 2032.42799779 1057.13978482 2032.42997359 C1045.37670557 2032.43210302 1033.61363004 2032.43636523 1021.85055256 2032.44321631 C1021.10755206 2032.44364693 1020.36455156 2032.44407754 1019.59903589 2032.4445212 C1016.57285847 2032.44627959 1013.54668106 2032.44804924 1010.52050366 2032.44983422 C973.84008622 2032.47142784 937.15966805 2032.48231292 900.4792457 2032.49131046 C888.58061439 2032.49424534 876.68198325 2032.49761536 864.78335214 2032.50127767 C863.94368271 2032.50153597 863.10401328 2032.50179426 862.23889932 2032.50206037 C858.84169363 2032.50310664 855.44448793 2032.50415506 852.04728224 2032.5052062 C793.92764371 2032.52317284 735.80800488 2032.53854964 677.68836396 2032.54596523 C673.12342603 2032.54654919 668.55848809 2032.54714646 663.99355016 2032.54774284 C662.63526616 2032.54792002 662.63526616 2032.54792002 661.24954207 2032.54810078 C652.0756014 2032.54929814 642.90166074 2032.55050691 633.72772007 2032.55173332 C631.8883435 2032.55197855 630.04896692 2032.55222241 628.20959034 2032.55246488 C569.17315002 2032.56024962 510.13672961 2032.58262085 451.10029799 2032.61514131 C408.67925409 2032.63850124 366.25821415 2032.6600457 323.83716393 2032.66714763 C322.96389427 2032.66729465 322.09062461 2032.66744167 321.19089223 2032.66759314 C302.01578273 2032.67077871 282.84067326 2032.67282909 263.66556352 2032.67382069 C255.94914845 2032.6742354 248.23273339 2032.6747903 240.51631832 2032.6753826 C239.24959644 2032.67547361 239.24959644 2032.67547361 237.95728421 2032.67556645 C210.8026347 2032.67757892 183.64800875 2032.69179155 156.49336745 2032.7123276 C129.11986418 2032.73295561 101.74638808 2032.74077836 74.37287782 2032.73124984 C70.58054179 2032.72993159 66.78820574 2032.72875349 62.99586964 2032.72765921 C61.88088116 2032.72732944 61.88088116 2032.72732944 60.74336766 2032.72699301 C49.02746198 2032.72389252 37.31160866 2032.73415104 25.5957151 2032.75013476 C14.0429436 2032.76561367 2.4902681 2032.76622148 -9.06251073 2032.75258653 C-15.22907107 2032.74571707 -21.39545329 2032.74492651 -27.56199742 2032.76214662 C-52.87636905 2032.82852272 -77.57479183 2032.48059972 -102.58790111 2028.25693511 C-103.52483626 2028.1002097 -104.4617714 2027.94348429 -105.42709852 2027.78200963 C-110.32315808 2026.94872951 -115.17231106 2026.00065926 -120.02540111 2024.94443511 C-121.44515983 2024.64291955 -122.86491895 2024.34140593 -124.28467846 2024.03989409 C-136.87688987 2021.32891477 -149.27988511 2018.05860705 -161.58790111 2014.25693511 C-162.55244213 2013.96238433 -163.51698314 2013.66783355 -164.51075268 2013.36435698 C-196.8217601 2003.38770047 -227.44322576 1989.32349527 -256.58790111 1972.25693511 C-257.39646557 1971.7849771 -258.20503002 1971.31301909 -259.03809643 1970.82675933 C-276.45639494 1960.59912954 -292.90412481 1948.97404503 -308.58790111 1936.25693511 C-309.53794018 1935.50025542 -310.48797924 1934.74357573 -311.46680736 1933.96396636 C-317.38690082 1929.20599651 -323.0139011 1924.20418547 -328.56836986 1919.03037261 C-330.79691392 1916.95974799 -333.07941993 1914.96421226 -335.38477611 1912.97959136 C-340.00379438 1908.95362546 -344.3302197 1904.66160217 -348.65040111 1900.31943511 C-349.41417064 1899.55953276 -350.17794018 1898.79963042 -350.96485424 1898.01670073 C-355.71379818 1893.25963199 -360.21336117 1888.35820553 -364.58790111 1883.25693511 C-365.51346838 1882.20871948 -366.44046925 1881.16176732 -367.36915111 1880.11631011 C-429.31219549 1809.62627877 -467.92624279 1716.83744105 -474.58790111 1623.25693511 C-474.67011286 1622.1067538 -474.75232461 1620.95657249 -474.83702762 1619.7715372 C-475.59637719 1608.4677085 -475.73181218 1597.20847645 -475.72212219 1585.88238524 C-475.72407959 1583.86598469 -475.72647011 1581.84958453 -475.72925016 1579.83318495 C-475.73560487 1574.31354595 -475.73581544 1568.79392159 -475.73497275 1563.27427964 C-475.73514315 1557.26073981 -475.74105937 1551.24720508 -475.74621361 1545.23366784 C-475.75443439 1534.70044351 -475.7589593 1524.167222 -475.7609396 1513.63399504 C-475.76307274 1502.33707237 -475.76734398 1491.04015355 -475.77418232 1479.74323272 C-475.77461293 1479.02835434 -475.77504354 1478.31347596 -475.77548721 1477.5769346 C-475.77724569 1474.66505425 -475.77901535 1471.7531739 -475.78080023 1468.84129356 C-475.80236333 1433.59380777 -475.8132738 1398.34632122 -475.82227647 1363.09883033 C-475.82521341 1351.6627629 -475.82858371 1340.22669565 -475.83224368 1328.79062842 C-475.83250197 1327.9830579 -475.83276026 1327.17548737 -475.83302638 1326.34344501 C-475.8340727 1323.07577351 -475.83512113 1319.808102 -475.8361722 1316.54043049 C-475.85413626 1260.63974142 -475.86951158 1204.73905204 -475.87693123 1148.83836049 C-475.87751518 1144.45022925 -475.87811245 1140.06209802 -475.87870885 1135.67396678 C-475.87882697 1134.8035406 -475.87894509 1133.93311442 -475.87906679 1133.03631169 C-475.8802641 1124.21833823 -475.88147288 1115.40036476 -475.88269932 1106.58239129 C-475.88294456 1104.81442387 -475.88318841 1103.04645645 -475.88343089 1101.27848903 C-475.89121464 1044.54094946 -475.9135854 987.80343061 -475.94610732 931.06590009 C-475.96947632 890.28274951 -475.99101581 849.49960307 -475.99811363 808.71644591 C-475.99826065 807.87641204 -475.99840767 807.03637816 -475.99855915 806.17088872 C-476.00174512 787.72316547 -476.00379522 769.27544227 -476.0047867 750.82771879 C-476.00520138 743.40359626 -476.00575627 735.97947375 -476.00634861 728.55535125 C-476.00640928 727.74289119 -476.00646994 726.93043113 -476.00653245 726.09335107 C-476.00854253 699.99967304 -476.02273727 673.90601959 -476.04329361 647.81235012 C-476.06394857 621.49996079 -476.07173043 595.18759975 -476.06221585 568.87520313 C-476.06089772 565.22488979 -476.05971958 561.57457641 -476.05862522 557.92426299 C-476.05840537 557.20881956 -476.05818552 556.49337613 -476.05795901 555.75625259 C-476.05486616 544.50856264 -476.06508674 533.26092746 -476.08110077 522.01325017 C-476.0966318 510.90518183 -476.09714249 499.79717335 -476.08355253 488.68909825 C-476.07671284 482.76712811 -476.07578731 476.84534303 -476.09311262 470.92339008 C-476.34524576 379.00042509 -457.8925146 291.31871458 -409.58790111 212.25693511 C-409.06309154 211.39068511 -408.53828197 210.52443511 -407.99756908 209.63193511 C-401.13542488 198.34239035 -393.70162135 187.67795192 -385.58790111 177.25693511 C-384.66178845 176.05276284 -383.73600102 174.84834036 -382.81055736 173.64365386 C-376.34564067 165.27545459 -369.57208117 157.19556409 -362.58790111 149.25693511 C-361.77450268 148.33009917 -360.96110424 147.40326323 -360.12305736 146.44834136 C-353.93844439 139.5602653 -347.43309879 133.00088599 -340.90040111 126.44443511 C-340.00909496 125.5484561 -339.11778881 124.6524771 -338.19947338 123.72934722 C-333.15580962 118.69788776 -328.01137562 113.87499489 -322.58790111 109.25693511 C-321.62368236 108.41131011 -320.65946361 107.56568511 -319.66602611 106.69443511 C-242.26707473 39.98594663 -141.47753417 2.09285022 0 0 Z " fill="#1D4ED8" transform="translate(475.5879011126235,0.7430648915469646)"/>
<path d="M0 0 C1.87202169 0.33841425 3.74981681 0.64447619 5.62792969 0.94726562 C17.39484105 3.00978043 28.68063547 6.81482666 40.04443359 10.43041992 C42.84051678 11.30604623 45.64635087 12.1340204 48.45996094 12.95117188 C52.14811984 14.05150658 55.57136732 15.37435163 59.04199219 17.05664062 C62.75368971 18.82763815 66.46081482 20.56611272 70.24121094 22.18554688 C86.36159821 29.10645291 101.52905711 37.51493738 116.04199219 47.36914062 C116.90751709 47.95646973 116.90751709 47.95646973 117.79052734 48.55566406 C126.08279243 54.23016143 133.87170649 60.34601463 141.43286133 66.96459961 C142.55063546 67.9402565 143.67536178 68.90798268 144.80541992 69.86938477 C150.92156846 75.11570189 156.65565614 80.74064977 162.35449219 86.43164062 C163.12025574 87.19589355 163.12025574 87.19589355 163.90148926 87.97558594 C171.59542135 95.67978225 178.67875151 103.5247708 185.04199219 112.36914062 C185.92843495 113.54189611 186.81786306 114.71239988 187.70996094 115.88085938 C217.06367497 154.60698051 238.2104428 202.04033452 245.04199219 250.36914062 C245.14946777 251.10487305 245.25694336 251.84060547 245.36767578 252.59863281 C249.11856125 279.13158401 248.17334577 306.23382672 248.11065674 332.95629883 C248.10026883 337.86474164 248.0958266 342.77318989 248.09082031 347.68164062 C248.08022293 357.24415454 248.06324668 366.80664485 248.04199219 376.36914062 C248.64569138 376.36729704 249.24939056 376.36545345 249.87138367 376.363554 C264.63129743 376.31918516 279.39120466 376.28619243 294.15116882 376.26551628 C301.2892803 376.25524904 308.42734698 376.24127696 315.56542969 376.21826172 C321.79449402 376.19818717 328.02352587 376.18539121 334.25262165 376.18096364 C337.54406061 376.17837978 340.83538626 376.17131774 344.12680054 376.15768051 C388.48054563 375.98135257 426.27917837 386.42648313 459.04199219 417.36914062 C459.85152344 418.11421875 460.66105469 418.85929687 461.49511719 419.62695312 C486.62218699 443.56878378 501.25453887 478.65792581 502.22678602 513.20892656 C502.3209431 518.86421573 502.30421945 524.51924292 502.28923035 530.1750946 C502.29082099 532.3615083 502.2932871 534.5479215 502.29654676 536.73433334 C502.30292806 542.70873249 502.29691714 548.68306332 502.28878248 554.65745795 C502.28218025 561.113519 502.28715942 567.56957273 502.29066467 574.02563477 C502.29547078 585.20274781 502.29224571 596.37984091 502.28401756 607.55695152 C502.27538879 619.28107577 502.27049774 631.00519105 502.2706852 642.72931862 C502.27069284 643.45992347 502.27070049 644.19052833 502.27070836 644.94327273 C502.27074928 647.90930324 502.27081489 650.87533375 502.27091418 653.84136426 C502.27181932 681.63871601 502.26188941 709.43605411 502.24648451 737.23340112 C502.23285736 761.91382214 502.22662346 786.59423346 502.22729492 811.2746582 C502.22733533 812.85990565 502.22737569 814.44515309 502.227416 816.03040054 C502.22743635 816.81412882 502.2274567 817.59785711 502.22747767 818.40533474 C502.22757847 822.35077017 502.22766905 826.29620561 502.22774792 830.24164104 C502.22776463 831.02006778 502.22778134 831.79849452 502.22779856 832.60050994 C502.22816394 853.24424085 502.22362293 873.88797054 502.21742135 894.53170043 C502.21720108 895.2662646 502.21698081 896.00082877 502.21675386 896.75765246 C502.21586567 899.71127871 502.21497726 902.66490496 502.21406291 905.61853121 C502.21090697 915.8815644 502.20939417 926.14459664 502.20895142 936.40763028 C502.20835366 949.63297134 502.20423343 962.8583039 502.19451996 976.08364161 C502.18990769 982.458749 502.18685438 988.83384659 502.18811417 995.20895576 C502.18921189 1001.04707819 502.18567436 1006.88517895 502.17846564 1012.72329686 C502.17665757 1014.83273772 502.17651688 1016.94218082 502.17823293 1019.05162176 C502.19777534 1046.0700639 502.19777534 1046.0700639 499.35449219 1057.55664062 C499.18079102 1058.26876709 499.00708984 1058.98089355 498.828125 1059.71459961 C488.97754546 1098.60902394 465.33969542 1131.14272286 431.10449219 1152.18164062 C423.72922797 1156.28900322 415.92804472 1159.39457695 408.04199219 1162.36914062 C407.39294922 1162.61438477 406.74390625 1162.85962891 406.07519531 1163.11230469 C391.46639946 1168.53218302 377.24475159 1170.83218021 361.69980526 1170.74387074 C360.22073102 1170.74670532 358.74165883 1170.75085353 357.26259145 1170.75617597 C353.23030894 1170.76693759 349.19824871 1170.7592585 345.16597459 1170.74834193 C340.76694941 1170.73977888 336.36795255 1170.74874163 331.96892887 1170.75540608 C324.26963034 1170.76467684 316.57039719 1170.7628643 308.87109947 1170.75367355 C297.42184697 1170.74004414 285.97264444 1170.74364891 274.52338827 1170.75063216 C254.07288218 1170.76254751 233.62240696 1170.75748194 213.17190258 1170.74535388 C195.27582933 1170.73481311 177.37976659 1170.73027898 159.48369026 1170.7316494 C158.29609508 1170.73173343 157.1084999 1170.73181746 155.88491699 1170.73190404 C151.0639589 1170.73225629 146.24300081 1170.7326403 141.42204272 1170.73306961 C96.20904701 1170.7370336 50.99606988 1170.72432167 5.78307948 1170.70354305 C-34.37826094 1170.68517278 -74.53958356 1170.6793612 -114.70092773 1170.68481445 C-117.27986165 1170.68516089 -119.85879557 1170.68550698 -122.43772949 1170.68585274 C-123.71271114 1170.68602374 -124.98769279 1170.68619473 -126.30131025 1170.68637091 C-132.71952514 1170.68722447 -139.13774003 1170.68804825 -145.55595493 1170.68883991 C-146.82219645 1170.68899699 -148.08843796 1170.68915407 -149.39305043 1170.68931591 C-182.96140029 1170.6933066 -216.52974844 1170.68782955 -250.09809726 1170.67932862 C-253.71039146 1170.67842159 -257.32268566 1170.67751594 -260.93497985 1170.67661339 C-263.33123208 1170.67601228 -265.72748431 1170.67540366 -268.12373654 1170.67478748 C-284.82372914 1170.67056742 -301.52371837 1170.6699873 -318.22371133 1170.67189298 C-339.7449982 1170.67433661 -361.26626703 1170.67025874 -382.78754897 1170.65468297 C-394.16669066 1170.6466371 -405.54580231 1170.64402798 -416.9249458 1170.64932533 C-424.52854518 1170.65230508 -432.13211803 1170.64799162 -439.73571108 1170.63777675 C-444.06596962 1170.6321578 -448.39616696 1170.62963333 -452.72642595 1170.63594333 C-456.6730024 1170.64162478 -460.61946046 1170.63796445 -464.56602516 1170.62714456 C-465.97779818 1170.62485501 -467.38958172 1170.62583423 -468.80134833 1170.6306671 C-481.77705386 1170.67170221 -494.46696853 1169.61882619 -506.89550781 1165.68164062 C-507.73758789 1165.41963867 -508.57966797 1165.15763672 -509.44726562 1164.88769531 C-545.80696541 1153.25314083 -576.06325172 1128.10892076 -593.95800781 1094.36914062 C-606.83699835 1068.97968488 -610.43798088 1042.96705697 -610.33895874 1014.76850891 C-610.34242524 1012.5810411 -610.34719639 1010.39357504 -610.35314047 1008.20611256 C-610.3655436 1002.26101873 -610.35952937 996.3160713 -610.35018182 990.37097728 C-610.34334751 983.93398465 -610.35389403 977.49701585 -610.36212158 971.06002808 C-610.37522574 959.2020125 -610.3736232 947.34404277 -610.36538718 935.48602457 C-610.35781559 924.52980865 -610.35588198 913.57360959 -610.35945511 902.61739159 C-610.35968426 901.88828378 -610.35991342 901.15917598 -610.36014952 900.407974 C-610.36108366 897.44770136 -610.36203887 894.48742874 -610.36302881 891.52715612 C-610.37218761 863.80812606 -610.36391385 836.08912528 -610.34773812 808.37009974 C-610.33349881 783.7824434 -610.33478107 759.19483367 -610.34912109 734.60717773 C-610.36520841 706.93161387 -610.37154234 679.25607583 -610.3622843 651.58050793 C-610.36132226 648.62681942 -610.36038373 645.67313089 -610.35945511 642.71944237 C-610.35921788 641.99225981 -610.35898064 641.26507725 -610.35873622 640.51585886 C-610.35533391 629.56863849 -610.35929562 618.62143689 -610.36689377 607.67421913 C-610.37549499 595.22031066 -610.37299008 582.76645902 -610.35705154 570.3125569 C-610.34919408 563.96485823 -610.34603409 557.61725392 -610.35599899 551.26955605 C-610.36499856 545.44856019 -610.35992702 539.62774535 -610.34406634 533.8067657 C-610.34074075 531.71154237 -610.34236189 529.61630345 -610.3496937 527.52109031 C-610.45613359 494.5509133 -603.33678893 462.08798697 -582.95800781 435.36914062 C-581.98541016 434.06783203 -581.98541016 434.06783203 -580.99316406 432.74023438 C-558.79952735 404.3472578 -527.63510948 384.48948024 -491.95800781 378.36914062 C-491.0473396 378.20675463 -490.13667139 378.04436863 -489.19840717 377.87706184 C-481.46290516 376.57695323 -474.02596818 376.09103269 -466.19116211 376.14208984 C-464.38878082 376.14165176 -464.38878082 376.14165176 -462.54998779 376.14120483 C-459.30078975 376.14234752 -456.05177111 376.15227673 -452.80260825 376.16635275 C-449.39004553 376.17897917 -445.97747811 376.18003988 -442.56489563 376.18240356 C-436.12313102 376.18858373 -429.68143548 376.2049469 -423.23970109 376.22510254 C-415.89734837 376.24757032 -408.55499209 376.25848214 -401.21261346 376.26849341 C-386.12770664 376.28931681 -371.04286418 376.32442431 -355.95800781 376.36914062 C-355.96800056 374.64290215 -355.96800056 374.64290215 -355.97819519 372.88179016 C-356.0396994 361.89789469 -356.0843066 350.9140353 -356.11344433 339.93000507 C-356.12892907 334.28651421 -356.14984189 328.64316515 -356.18432617 322.99975586 C-356.43382645 281.03105009 -353.66002731 242.66762387 -340.95800781 202.36914062 C-340.57128906 201.13550781 -340.18457031 199.901875 -339.78613281 198.63085938 C-331.10655182 172.87514621 -318.47363227 148.6048747 -302.95800781 126.36914062 C-302.09200446 125.10880499 -301.22611353 123.84839209 -300.36035156 122.58789062 C-295.10763691 115.01783221 -289.43450387 107.91568957 -283.36572266 100.98168945 C-282.37977314 99.85227625 -281.40155189 98.71609135 -280.42919922 97.57495117 C-275.44453854 91.76976118 -270.11490291 86.3424368 -264.70800781 80.93164062 C-263.83015625 80.04154297 -262.95230469 79.15144531 -262.04785156 78.234375 C-256.00114802 72.17439173 -249.67692956 66.66972707 -242.95800781 61.36914062 C-242.34989258 60.88147217 -241.74177734 60.39380371 -241.11523438 59.89135742 C-222.88705253 45.32318748 -202.8848716 33.51113239 -181.89550781 23.36914062 C-180.98091797 22.92449463 -180.06632812 22.47984863 -179.12402344 22.02172852 C-173.4161429 19.32204135 -167.67108447 17.15926242 -161.65014648 15.25756836 C-159.1444314 14.43066193 -156.7520669 13.48182676 -154.33300781 12.43164062 C-141.79762385 7.30900775 -128.10469991 4.51350409 -114.95800781 1.36914062 C-113.81074219 1.09070313 -112.66347656 0.81226563 -111.48144531 0.52539062 C-75.63590293 -7.71496395 -35.94580249 -6.57091212 0 0 Z " fill="#1D4ED8" transform="translate(1070.9580078125,402.630859375)"/>
<path d="M0 0 C1.87202169 0.33841425 3.74981681 0.64447619 5.62792969 0.94726562 C17.39484105 3.00978043 28.68063547 6.81482666 40.04443359 10.43041992 C42.84051678 11.30604623 45.64635087 12.1340204 48.45996094 12.95117188 C52.14811984 14.05150658 55.57136732 15.37435163 59.04199219 17.05664062 C62.75368971 18.82763815 66.46081482 20.56611272 70.24121094 22.18554688 C86.36159821 29.10645291 101.52905711 37.51493738 116.04199219 47.36914062 C116.90751709 47.95646973 116.90751709 47.95646973 117.79052734 48.55566406 C126.08279243 54.23016143 133.87170649 60.34601463 141.43286133 66.96459961 C142.55063546 67.9402565 143.67536178 68.90798268 144.80541992 69.86938477 C150.92156846 75.11570189 156.65565614 80.74064977 162.35449219 86.43164062 C163.12025574 87.19589355 163.12025574 87.19589355 163.90148926 87.97558594 C171.59542135 95.67978225 178.67875151 103.5247708 185.04199219 112.36914062 C185.92843495 113.54189611 186.81786306 114.71239988 187.70996094 115.88085938 C217.06367497 154.60698051 238.2104428 202.04033452 245.04199219 250.36914062 C245.14946777 251.10487305 245.25694336 251.84060547 245.36767578 252.59863281 C249.11856125 279.13158401 248.17334577 306.23382672 248.11065674 332.95629883 C248.10026883 337.86474164 248.0958266 342.77318989 248.09082031 347.68164062 C248.08022293 357.24415454 248.06324668 366.80664485 248.04199219 376.36914062 C248.64569138 376.36729704 249.24939056 376.36545345 249.87138367 376.363554 C264.63129743 376.31918516 279.39120466 376.28619243 294.15116882 376.26551628 C301.2892803 376.25524904 308.42734698 376.24127696 315.56542969 376.21826172 C321.79449402 376.19818717 328.02352587 376.18539121 334.25262165 376.18096364 C337.54406061 376.17837978 340.83538626 376.17131774 344.12680054 376.15768051 C388.48054563 375.98135257 426.27917837 386.42648313 459.04199219 417.36914062 C459.85152344 418.11421875 460.66105469 418.85929687 461.49511719 419.62695312 C486.62218699 443.56878378 501.25453887 478.65792581 502.22678602 513.20892656 C502.3209431 518.86421573 502.30421945 524.51924292 502.28923035 530.1750946 C502.29082099 532.3615083 502.2932871 534.5479215 502.29654676 536.73433334 C502.30292806 542.70873249 502.29691714 548.68306332 502.28878248 554.65745795 C502.28218025 561.113519 502.28715942 567.56957273 502.29066467 574.02563477 C502.29547078 585.20274781 502.29224571 596.37984091 502.28401756 607.55695152 C502.27538879 619.28107577 502.27049774 631.00519105 502.2706852 642.72931862 C502.27069284 643.45992347 502.27070049 644.19052833 502.27070836 644.94327273 C502.27074928 647.90930324 502.27081489 650.87533375 502.27091418 653.84136426 C502.27181932 681.63871601 502.26188941 709.43605411 502.24648451 737.23340112 C502.23285736 761.91382214 502.22662346 786.59423346 502.22729492 811.2746582 C502.22733533 812.85990565 502.22737569 814.44515309 502.227416 816.03040054 C502.22743635 816.81412882 502.2274567 817.59785711 502.22747767 818.40533474 C502.22757847 822.35077017 502.22766905 826.29620561 502.22774792 830.24164104 C502.22776463 831.02006778 502.22778134 831.79849452 502.22779856 832.60050994 C502.22816394 853.24424085 502.22362293 873.88797054 502.21742135 894.53170043 C502.21720108 895.2662646 502.21698081 896.00082877 502.21675386 896.75765246 C502.21586567 899.71127871 502.21497726 902.66490496 502.21406291 905.61853121 C502.21090697 915.8815644 502.20939417 926.14459664 502.20895142 936.40763028 C502.20835366 949.63297134 502.20423343 962.8583039 502.19451996 976.08364161 C502.18990769 982.458749 502.18685438 988.83384659 502.18811417 995.20895576 C502.18921189 1001.04707819 502.18567436 1006.88517895 502.17846564 1012.72329686 C502.17665757 1014.83273772 502.17651688 1016.94218082 502.17823293 1019.05162176 C502.19777534 1046.0700639 502.19777534 1046.0700639 499.35449219 1057.55664062 C499.18079102 1058.26876709 499.00708984 1058.98089355 498.828125 1059.71459961 C488.97754546 1098.60902394 465.33969542 1131.14272286 431.10449219 1152.18164062 C423.72922797 1156.28900322 415.92804472 1159.39457695 408.04199219 1162.36914062 C407.39294922 1162.61438477 406.74390625 1162.85962891 406.07519531 1163.11230469 C391.46639946 1168.53218302 377.24475159 1170.83218021 361.69980526 1170.74387074 C360.22073102 1170.74670532 358.74165883 1170.75085353 357.26259145 1170.75617597 C353.23030894 1170.76693759 349.19824871 1170.7592585 345.16597459 1170.74834193 C340.76694941 1170.73977888 336.36795255 1170.74874163 331.96892887 1170.75540608 C324.26963034 1170.76467684 316.57039719 1170.7628643 308.87109947 1170.75367355 C297.42184697 1170.74004414 285.97264444 1170.74364891 274.52338827 1170.75063216 C254.07288218 1170.76254751 233.62240696 1170.75748194 213.17190258 1170.74535388 C195.27582933 1170.73481311 177.37976659 1170.73027898 159.48369026 1170.7316494 C158.29609508 1170.73173343 157.1084999 1170.73181746 155.88491699 1170.73190404 C151.0639589 1170.73225629 146.24300081 1170.7326403 141.42204272 1170.73306961 C96.20904701 1170.7370336 50.99606988 1170.72432167 5.78307948 1170.70354305 C-34.37826094 1170.68517278 -74.53958356 1170.6793612 -114.70092773 1170.68481445 C-117.27986165 1170.68516089 -119.85879557 1170.68550698 -122.43772949 1170.68585274 C-123.71271114 1170.68602374 -124.98769279 1170.68619473 -126.30131025 1170.68637091 C-132.71952514 1170.68722447 -139.13774003 1170.68804825 -145.55595493 1170.68883991 C-146.82219645 1170.68899699 -148.08843796 1170.68915407 -149.39305043 1170.68931591 C-182.96140029 1170.6933066 -216.52974844 1170.68782955 -250.09809726 1170.67932862 C-253.71039146 1170.67842159 -257.32268566 1170.67751594 -260.93497985 1170.67661339 C-263.33123208 1170.67601228 -265.72748431 1170.67540366 -268.12373654 1170.67478748 C-284.82372914 1170.67056742 -301.52371837 1170.6699873 -318.22371133 1170.67189298 C-339.7449982 1170.67433661 -361.26626703 1170.67025874 -382.78754897 1170.65468297 C-394.16669066 1170.6466371 -405.54580231 1170.64402798 -416.9249458 1170.64932533 C-424.52854518 1170.65230508 -432.13211803 1170.64799162 -439.73571108 1170.63777675 C-444.06596962 1170.6321578 -448.39616696 1170.62963333 -452.72642595 1170.63594333 C-456.6730024 1170.64162478 -460.61946046 1170.63796445 -464.56602516 1170.62714456 C-465.97779818 1170.62485501 -467.38958172 1170.62583423 -468.80134833 1170.6306671 C-481.77705386 1170.67170221 -494.46696853 1169.61882619 -506.89550781 1165.68164062 C-507.73758789 1165.41963867 -508.57966797 1165.15763672 -509.44726562 1164.88769531 C-545.80696541 1153.25314083 -576.06325172 1128.10892076 -593.95800781 1094.36914062 C-606.83699835 1068.97968488 -610.43798088 1042.96705697 -610.33895874 1014.76850891 C-610.34242524 1012.5810411 -610.34719639 1010.39357504 -610.35314047 1008.20611256 C-610.3655436 1002.26101873 -610.35952937 996.3160713 -610.35018182 990.37097728 C-610.34334751 983.93398465 -610.35389403 977.49701585 -610.36212158 971.06002808 C-610.37522574 959.2020125 -610.3736232 947.34404277 -610.36538718 935.48602457 C-610.35781559 924.52980865 -610.35588198 913.57360959 -610.35945511 902.61739159 C-610.35968426 901.88828378 -610.35991342 901.15917598 -610.36014952 900.407974 C-610.36108366 897.44770136 -610.36203887 894.48742874 -610.36302881 891.52715612 C-610.37218761 863.80812606 -610.36391385 836.08912528 -610.34773812 808.37009974 C-610.33349881 783.7824434 -610.33478107 759.19483367 -610.34912109 734.60717773 C-610.36520841 706.93161387 -610.37154234 679.25607583 -610.3622843 651.58050793 C-610.36132226 648.62681942 -610.36038373 645.67313089 -610.35945511 642.71944237 C-610.35921788 641.99225981 -610.35898064 641.26507725 -610.35873622 640.51585886 C-610.35533391 629.56863849 -610.35929562 618.62143689 -610.36689377 607.67421913 C-610.37549499 595.22031066 -610.37299008 582.76645902 -610.35705154 570.3125569 C-610.34919408 563.96485823 -610.34603409 557.61725392 -610.35599899 551.26955605 C-610.36499856 545.44856019 -610.35992702 539.62774535 -610.34406634 533.8067657 C-610.34074075 531.71154237 -610.34236189 529.61630345 -610.3496937 527.52109031 C-610.45613359 494.5509133 -603.33678893 462.08798697 -582.95800781 435.36914062 C-581.98541016 434.06783203 -581.98541016 434.06783203 -580.99316406 432.74023438 C-558.79952735 404.3472578 -527.63510948 384.48948024 -491.95800781 378.36914062 C-491.0473396 378.20675463 -490.13667139 378.04436863 -489.19840717 377.87706184 C-481.46290516 376.57695323 -474.02596818 376.09103269 -466.19116211 376.14208984 C-464.38878082 376.14165176 -464.38878082 376.14165176 -462.54998779 376.14120483 C-459.30078975 376.14234752 -456.05177111 376.15227673 -452.80260825 376.16635275 C-449.39004553 376.17897917 -445.97747811 376.18003988 -442.56489563 376.18240356 C-436.12313102 376.18858373 -429.68143548 376.2049469 -423.23970109 376.22510254 C-415.89734837 376.24757032 -408.55499209 376.25848214 -401.21261346 376.26849341 C-386.12770664 376.28931681 -371.04286418 376.32442431 -355.95800781 376.36914062 C-355.96800056 374.64290215 -355.96800056 374.64290215 -355.97819519 372.88179016 C-356.0396994 361.89789469 -356.0843066 350.9140353 -356.11344433 339.93000507 C-356.12892907 334.28651421 -356.14984189 328.64316515 -356.18432617 322.99975586 C-356.43382645 281.03105009 -353.66002731 242.66762387 -340.95800781 202.36914062 C-340.57128906 201.13550781 -340.18457031 199.901875 -339.78613281 198.63085938 C-331.10655182 172.87514621 -318.47363227 148.6048747 -302.95800781 126.36914062 C-302.09200446 125.10880499 -301.22611353 123.84839209 -300.36035156 122.58789062 C-295.10763691 115.01783221 -289.43450387 107.91568957 -283.36572266 100.98168945 C-282.37977314 99.85227625 -281.40155189 98.71609135 -280.42919922 97.57495117 C-275.44453854 91.76976118 -270.11490291 86.3424368 -264.70800781 80.93164062 C-263.83015625 80.04154297 -262.95230469 79.15144531 -262.04785156 78.234375 C-256.00114802 72.17439173 -249.67692956 66.66972707 -242.95800781 61.36914062 C-242.34989258 60.88147217 -241.74177734 60.39380371 -241.11523438 59.89135742 C-222.88705253 45.32318748 -202.8848716 33.51113239 -181.89550781 23.36914062 C-180.98091797 22.92449463 -180.06632812 22.47984863 -179.12402344 22.02172852 C-173.4161429 19.32204135 -167.67108447 17.15926242 -161.65014648 15.25756836 C-159.1444314 14.43066193 -156.7520669 13.48182676 -154.33300781 12.43164062 C-141.79762385 7.30900775 -128.10469991 4.51350409 -114.95800781 1.36914062 C-113.81074219 1.09070313 -112.66347656 0.81226563 -111.48144531 0.52539062 C-75.63590293 -7.71496395 -35.94580249 -6.57091212 0 0 Z M-502.95800781 487.36914062 C-511.00386981 498.15945979 -515.11854511 508.63079605 -515.08943558 522.05627537 C-515.09148821 522.93471537 -515.09354084 523.81315538 -515.09565568 524.71821478 C-515.10133258 527.67646076 -515.09986757 530.63466029 -515.09844971 533.59291077 C-515.10103295 535.72944567 -515.104046 537.86598008 -515.10745311 540.00251383 C-515.11553124 545.88546893 -515.11731313 551.76841184 -515.11805058 557.65137184 C-515.11989973 563.991726 -515.1274464 570.33207382 -515.13418579 576.67242432 C-515.1484845 591.26573991 -515.15429657 605.85905232 -515.15887774 620.45237361 C-515.16121392 627.66483504 -515.16481661 634.87729567 -515.16857311 642.08975648 C-515.18140889 666.78171763 -515.19212776 691.47367833 -515.19557571 716.16564274 C-515.19579735 717.71563859 -515.19601913 719.26563443 -515.19624107 720.81563028 C-515.19646171 722.36935957 -515.19668219 723.92308886 -515.19690251 725.47681814 C-515.19734506 728.59383905 -515.19779218 731.71085995 -515.19824219 734.82788086 C-515.19835158 735.60072068 -515.19846097 736.37356049 -515.19857368 737.1698197 C-515.2022037 762.22497954 -515.21812157 787.28011043 -515.24143255 812.33525918 C-515.26603652 838.82861659 -515.27974883 865.32195746 -515.28094363 891.81532663 C-515.28111508 894.72449935 -515.28133051 897.63367206 -515.28157806 900.54284477 C-515.28163383 901.25915829 -515.2816896 901.97547182 -515.28174706 902.71349181 C-515.28289705 914.23428233 -515.29391471 925.75504313 -515.30846512 937.27582362 C-515.32284179 948.85949945 -515.32580831 960.44312845 -515.31802514 972.02681173 C-515.31411694 978.300621 -515.3150567 984.57433037 -515.32908249 990.84812737 C-515.34181092 996.59417738 -515.340633 1002.34005232 -515.32849178 1008.08610206 C-515.32653296 1010.16219711 -515.32962172 1012.23830452 -515.33833614 1014.3143822 C-515.41065472 1032.71148578 -513.6254209 1048.1464432 -500.40332031 1062.04492188 C-488.90322509 1072.97552356 -476.96758825 1075.98474454 -461.372365 1075.86691856 C-459.92683251 1075.87049125 -458.4813035 1075.87581717 -457.03578308 1075.88272029 C-453.07796534 1075.89657836 -449.12055138 1075.88568378 -445.16275255 1075.87060812 C-440.85155349 1075.85862317 -436.54040386 1075.86993886 -432.22920483 1075.87824976 C-424.67807649 1075.88960527 -417.12706851 1075.88613167 -409.5759449 1075.87287903 C-398.34729454 1075.85322653 -387.11873212 1075.85651294 -375.89007151 1075.86437962 C-356.99821693 1075.8769262 -338.10641229 1075.87059089 -319.21456337 1075.85319138 C-300.50465748 1075.83596312 -281.79477403 1075.82615105 -263.08485985 1075.82652664 C-261.33917988 1075.82654958 -261.33917988 1075.82654958 -259.55823366 1075.82657298 C-254.83412791 1075.8266548 -250.11002218 1075.82678602 -245.38591644 1075.8269846 C-201.0697367 1075.82879677 -156.75359115 1075.80890648 -112.43742327 1075.77812527 C-73.05552655 1075.75087216 -33.67365412 1075.73840294 5.70825195 1075.73974609 C8.23736505 1075.73982692 10.76647816 1075.73990764 13.29559126 1075.73998825 C14.545931 1075.74002895 15.79627074 1075.74006966 17.08449956 1075.74011159 C23.37840126 1075.74031318 29.67230295 1075.74049434 35.96620464 1075.74065208 C37.82869798 1075.74070222 37.82869798 1075.74070222 39.72881744 1075.74075338 C72.62805498 1075.74148351 105.52728947 1075.73240874 138.42652446 1075.71999896 C139.59661077 1075.71955841 140.76669709 1075.71911787 141.97224057 1075.71866398 C146.67751487 1075.7168875 151.38278918 1075.71511071 156.08806347 1075.71328206 C172.46515696 1075.70696025 188.84224806 1075.7039433 205.2193427 1075.70305908 C226.32071553 1075.70186553 247.42206832 1075.69388914 268.52343258 1075.67419617 C279.68607938 1075.66395863 290.84869676 1075.65914995 302.01134804 1075.66218854 C309.4631239 1075.66365568 316.91487109 1075.6578628 324.36663776 1075.64610092 C328.6151718 1075.63959214 332.8636441 1075.63623674 337.11218115 1075.64162211 C340.97763156 1075.6464508 344.84295853 1075.64207795 348.70839327 1075.63038588 C350.09753497 1075.62778707 351.48668797 1075.62852262 352.87582482 1075.6330191 C367.9406168 1075.6778526 381.77479932 1072.79092572 393.04199219 1062.05664062 C403.2841278 1050.84359625 407.20342743 1038.49170081 407.17621326 1023.546134 C407.17974161 1022.22466005 407.17974161 1022.22466005 407.18334123 1020.87648967 C407.19001403 1017.91560779 407.18957353 1014.95476998 407.18916321 1011.99388123 C407.19246289 1009.85307103 407.19618868 1007.71226146 407.20030469 1005.57145268 C407.21032073 999.68128744 407.21404084 993.79113239 407.216694 987.90095985 C407.22059817 981.55105969 407.23017637 975.20116759 407.23890686 968.85127258 C407.25773313 954.23849319 407.26792638 939.62571406 407.27636754 925.01292547 C407.28057596 917.78993219 407.28579767 910.56693973 407.29105207 903.34394715 C407.30894076 878.61302264 407.32393637 853.88209788 407.33137226 829.15116787 C407.33184702 827.59896906 407.3323229 826.04677026 407.33279992 824.49457145 C407.3330363 823.72483133 407.33327268 822.95509121 407.33351621 822.16202564 C407.3347174 818.26223258 407.33593285 814.36243953 407.3371582 810.46264648 C407.33751843 809.30176496 407.33751843 809.30176496 407.33788593 808.11743129 C407.34577812 783.02743317 407.36920907 757.93748234 407.40171415 732.84750486 C407.43602722 706.31347012 407.45572474 679.77946303 407.4590165 653.24540573 C407.45943403 650.33145621 407.45991359 647.41750671 407.46043968 644.50355721 C407.46056287 643.78607446 407.46068607 643.06859171 407.46081299 642.32936706 C407.4631431 630.79301021 407.47879242 619.25670837 407.49928153 607.72037111 C407.5195572 596.11998828 407.52467567 584.51968686 407.51551089 572.91928791 C407.51096363 566.63721654 407.51287764 560.35532348 407.53227234 554.07327652 C407.54988555 548.3185354 407.54892088 542.56410292 407.53337505 536.8093586 C407.53099623 534.73125474 407.53533666 532.65312961 407.5472037 530.57505827 C407.64598407 512.12983566 405.10788439 497.57992176 391.65527344 483.95117188 C383.83683652 477.2406616 373.66158271 472.24658451 363.26273865 472.24149013 C362.04732148 472.23847416 360.83190432 472.23545819 359.57965633 472.23235083 C358.22113866 472.23404997 356.8626211 472.23584072 355.50410366 472.23771286 C354.06254621 472.23606401 352.62098921 472.2339781 351.17943296 472.23149276 C347.19080813 472.22590618 343.20220469 472.22660215 339.21357719 472.22827035 C334.88448071 472.22899917 330.55539037 472.22398386 326.22629648 472.21969533 C317.62773664 472.2121007 309.029183 472.20992153 300.43062015 472.20936627 C290.13627432 472.20845407 279.84193427 472.20179078 269.54759092 472.19501945 C244.66265572 472.17894197 219.77772113 472.17305415 194.89278167 472.1682707 C183.12505451 472.16593646 171.35732784 472.162334 159.58960107 472.15857532 C119.32332225 472.14573815 79.05704372 472.1350192 38.7907629 472.13157272 C36.26196439 472.13135109 33.73316588 472.13112931 31.20436737 472.13090737 C28.6693854 472.13068673 26.13440342 472.13046625 23.59942144 472.13024592 C18.51362797 472.12980337 13.42783449 472.12935625 8.34204102 472.12890625 C7.08105519 472.12879686 5.82006936 472.12868747 4.52087185 472.12857476 C-36.37321835 472.12494355 -77.26729083 472.10902195 -118.16137424 472.08571589 C-161.37634605 472.06113207 -204.59130774 472.04740055 -247.80628675 472.04620481 C-252.54827623 472.04603335 -257.2902657 472.04581792 -262.03225517 472.04557037 C-263.1999036 472.0455146 -264.36755202 472.04545884 -265.57058373 472.04540138 C-284.37990609 472.04424965 -303.18921029 472.03321723 -321.99852651 472.01868332 C-340.89735987 472.00433253 -359.7961699 472.00107329 -378.69500721 472.0091233 C-389.92851479 472.01358631 -401.16194721 472.00969215 -412.39544495 471.99388479 C-419.89604184 471.98415533 -427.3965859 471.98529356 -434.89718227 471.99532102 C-439.17296875 472.00072776 -443.44861061 472.00137594 -447.72438527 471.9888123 C-451.61586043 471.97747312 -455.5070733 471.97999792 -459.39853938 471.99347937 C-460.79598835 471.99591071 -462.19345752 471.99333873 -463.59088421 471.98508289 C-478.70999297 471.90164833 -492.44506301 475.83961389 -502.95800781 487.36914062 Z " fill="#FEFEFE" transform="translate(1070.9580078125,402.630859375)"/>
<path d="M0 0 C0.8820108 -0.0033284 1.76402161 -0.0066568 2.67276001 -0.01008606 C4.53688032 -0.01513044 6.40100959 -0.01749516 8.26513672 -0.01733398 C11.05842864 -0.01949784 13.85131022 -0.03761727 16.64453125 -0.05664062 C31.23480207 -0.1035427 45.56115638 0.75393294 59.7890625 4.23046875 C61.07816528 4.54310669 61.07816528 4.54310669 62.39331055 4.86206055 C79.28069946 9.18040065 95.4059384 15.91840193 110.7265625 24.16796875 C111.71527344 24.67972656 112.70398437 25.19148437 113.72265625 25.71875 C127.92711768 33.1937219 142.07281422 42.83856416 153.15625 54.5625 C155.46437949 56.92230403 157.99501595 59.00162753 160.5390625 61.1015625 C180.12000403 79.59855906 197.1563085 106.28051098 205.609375 131.84375 C206.72538965 135.1644789 208.0182206 138.36678916 209.3515625 141.60546875 C212.08835457 148.63190356 213.39670774 155.76959955 214.7265625 163.16796875 C215.0700159 164.73285854 215.4224247 166.29584796 215.7890625 167.85546875 C224.09855051 206.07911362 218.7265625 246.05154486 218.7265625 285.16796875 C82.7665625 285.16796875 -53.1934375 285.16796875 -193.2734375 285.16796875 C-193.2734375 184.16796875 -193.2734375 184.16796875 -191.2734375 174.16796875 C-190.97767996 172.1311393 -190.69551966 170.09223699 -190.43359375 168.05078125 C-189.24332537 160.16568616 -187.04680543 152.64624671 -184.7109375 145.04296875 C-184.49067902 144.31974426 -184.27042053 143.59651978 -184.04348755 142.85137939 C-180.43981576 131.09325867 -176.27653058 119.94009732 -170.2734375 109.16796875 C-169.90895508 108.50748535 -169.54447266 107.84700195 -169.16894531 107.16650391 C-160.07428919 90.89967192 -148.75301854 76.16685475 -136.2109375 62.41796875 C-135.74059082 61.89904053 -135.27024414 61.3801123 -134.78564453 60.84545898 C-104.12150642 27.71282091 -60.17741155 8.20526192 -16.2734375 1.16796875 C-14.68631958 0.90209961 -14.68631958 0.90209961 -13.06713867 0.63085938 C-8.68505637 0.09617709 -4.40939057 0.00591732 0 0 Z " fill="#1D4ED8" transform="translate(1004.2734375,493.83203125)"/>
<path d="M0 0 C1.2694043 -0.01836914 1.2694043 -0.01836914 2.56445312 -0.03710938 C8.02975508 -0.04975078 12.68932364 0.65248425 17.9375 2.1875 C16.36843989 5.9873251 13.99167739 8.35081096 11.07641602 11.2121582 C10.58351074 11.69893036 10.09060547 12.18570251 9.58276367 12.68722534 C8.51490116 13.74081304 7.44480852 14.79214415 6.37274361 15.84145546 C4.67343383 17.50588476 2.98139457 19.17739318 1.29124451 20.85112 C-3.51428997 25.60784248 -8.33081003 30.35332186 -13.15649414 35.08959961 C-16.11105784 37.9904187 -19.05565947 40.90105075 -21.99446297 43.81783104 C-23.11297809 44.92397619 -24.23526826 46.02631815 -25.36144829 47.12465858 C-26.94098631 48.66550082 -28.50757048 50.21852027 -30.07202148 51.7746582 C-30.96533676 52.65305862 -31.85865204 53.53145905 -32.77903748 54.43647766 C-36.6452456 59.09432722 -38.72613342 63.97818707 -38.38760376 70.18611145 C-36.82241939 79.82162624 -28.4337463 86.38062404 -21.8515625 92.89453125 C-20.63788204 94.1083669 -19.42486998 95.32287119 -18.2124939 96.53800964 C-15.6785535 99.07332941 -13.13782611 101.60157766 -10.59179688 104.12475586 C-7.33618551 107.35193883 -4.09642358 110.59450065 -0.86136818 113.84227467 C1.63807481 116.34868554 4.14485376 118.84765249 6.65398026 121.34436607 C7.85128084 122.5371662 9.04651861 123.73204078 10.23960495 124.92905617 C11.90949365 126.60186909 13.58881249 128.26461189 15.27099609 129.92504883 C15.75743088 130.41598526 16.24386566 130.90692169 16.74504089 131.41273499 C21.10278935 135.6777112 25.60452418 138.60608392 31.8125 138.6875 C32.59367187 138.7184375 33.37484375 138.749375 34.1796875 138.78125 C43.59055835 136.7551135 50.33757514 128.14200504 56.8046875 121.54296875 C57.93108495 120.40587939 59.0583066 119.26960594 60.18630981 118.1341095 C63.13457902 115.16319366 66.07454277 112.18421387 69.01190186 109.20251465 C73.73233746 104.41151493 78.46064926 99.62839141 83.19797134 94.85408974 C84.84991319 93.18541801 86.49531336 91.51048216 88.14035034 89.83500671 C89.14522645 88.81967772 90.15034986 87.8045934 91.15576172 86.78979492 C92.03320038 85.89886642 92.91063904 85.00793793 93.81466675 84.0900116 C95.9375 82.1875 95.9375 82.1875 97.9375 82.1875 C106.71891152 107.5442666 95.58785485 138.16682164 84.62109375 161.12890625 C73.92405911 182.67728058 58.8520262 205.65346465 35.40625 214.5234375 C13.14097969 221.59416523 -7.4674173 217.36213349 -28.0625 207.1875 C-29.31389599 206.41267357 -30.56144814 205.63159759 -31.8046875 204.84375 C-34.78260603 202.84716879 -34.78260603 202.84716879 -36.97952366 203.80990314 C-39.5228249 205.49194039 -41.5031181 207.40194056 -43.64793396 209.57279968 C-44.56334961 210.49413696 -45.47876526 211.41547424 -46.42192078 212.36473083 C-47.42905538 213.38851167 -48.43611779 214.41236355 -49.44311523 215.4362793 C-50.50899424 216.51254679 -51.57536201 217.58833041 -52.6421814 218.66366577 C-54.93710043 220.97845316 -57.22906604 223.29611225 -59.51894951 225.61588097 C-63.13859639 229.2816524 -66.76799651 232.93765952 -70.39942932 236.5917511 C-80.72389653 246.98309381 -91.04000167 257.38263628 -101.33520508 267.80297852 C-107.02242883 273.55916603 -112.72024016 279.30464685 -118.43014675 285.03833705 C-122.04528981 288.66970794 -125.64687569 292.31385874 -129.23919857 295.96779859 C-131.4740507 298.2345934 -133.72131274 300.48875271 -135.97237778 302.7394371 C-137.01568745 303.78760293 -138.05382096 304.84094965 -139.08638573 305.89970207 C-140.49371431 307.34122451 -141.92139237 308.76279725 -143.3500824 310.18315125 C-144.14408164 310.98527888 -144.93808088 311.78740652 -145.75614071 312.61384106 C-148.0625 314.1875 -148.0625 314.1875 -150.73967075 314.0047884 C-153.08899535 313.1781776 -154.72064011 312.28172934 -156.69921875 310.78125 C-157.68148437 310.04297974 -157.68148437 310.04297974 -158.68359375 309.28979492 C-159.70646484 308.49665894 -159.70646484 308.49665894 -160.75 307.6875 C-161.45898438 307.14649658 -162.16796875 306.60549316 -162.8984375 306.0480957 C-167.76215307 302.29787422 -172.41519564 298.37581604 -176.91015625 294.1875 C-178.89119194 292.34668281 -180.92687254 290.61025357 -183 288.875 C-192.59965318 280.47288907 -200.54056363 270.43515548 -208.0625 260.1875 C-208.71992187 259.30320312 -209.37734375 258.41890625 -210.0546875 257.5078125 C-210.61414063 256.72148438 -211.17359375 255.93515625 -211.75 255.125 C-212.22824219 254.45339844 -212.70648437 253.78179688 -213.19921875 253.08984375 C-214.0625 251.1875 -214.0625 251.1875 -213.88497257 249.35966873 C-212.75800129 246.38331201 -211.01944709 244.77599334 -208.76622009 242.53045654 C-207.83928848 241.59940094 -206.91235687 240.66834534 -205.95733643 239.70907593 C-204.92213515 238.68449182 -203.88679098 237.66005207 -202.85131836 236.63574219 C-201.76679651 235.55206652 -200.68293477 234.46772989 -199.59968567 233.38278198 C-196.65610601 230.43834061 -193.70335975 227.50324871 -190.7489059 224.56972408 C-187.6632359 221.50279151 -184.58604383 218.42737694 -181.50794983 215.35284424 C-175.67742168 209.53164517 -169.83928747 203.71813648 -163.9983955 197.90733838 C-157.3493048 191.29176478 -150.70871757 184.66768371 -144.068838 178.04286718 C-130.40951227 164.41491003 -116.73952142 150.79769651 -103.0625 137.1875 C-104.47626175 132.78951233 -106.17831337 128.94203622 -108.375 124.875 C-116.88140419 108.28996259 -121.21420838 88.51322883 -116.0625 70.1875 C-107.35432607 44.06297821 -86.42714918 29.33910512 -63.0625 17.1875 C-62.38316406 16.83413574 -61.70382812 16.48077148 -61.00390625 16.11669922 C-50.07665705 10.5213899 -38.8791671 6.4832867 -27.0625 3.1875 C-26.39621582 2.99897461 -25.72993164 2.81044922 -25.04345703 2.61621094 C-16.77565891 0.39866864 -8.52670462 0.00652387 0 0 Z " fill="#60A4F9" transform="translate(1054.0625,1032.8125)"/>
</svg>
